<svg width="16" height="16" viewBox="0 0 16 16" fill="none" xmlns="http://www.w3.org/2000/svg">
<g id="Line 16x16/location-05">
<path id="Vector" d="M9.66683 5.9987C9.66683 6.91916 8.92063 7.66536 8.00016 7.66536C7.0797 7.66536 6.3335 6.91916 6.3335 5.9987C6.3335 5.07822 7.0797 4.33203 8.00016 4.33203C8.92063 4.33203 9.66683 5.07822 9.66683 5.9987Z" stroke="#141B34"/>
<path id="Vector_2" d="M8.83843 11.6611C8.61356 11.8776 8.31303 11.9987 8.0003 11.9987C7.6875 11.9987 7.38696 11.8776 7.1621 11.6611C5.10303 9.6659 2.34362 7.43703 3.6893 4.20118C4.4169 2.45158 6.16346 1.33203 8.0003 1.33203C9.8371 1.33203 11.5836 2.45158 12.3112 4.20118C13.6552 7.43296 10.9026 9.67277 8.83843 11.6611Z" stroke="#141B34"/>
<path id="Vector_3" d="M12 13.332C12 14.0684 10.2091 14.6654 8 14.6654C5.79086 14.6654 4 14.0684 4 13.332" stroke="#141B34" stroke-linecap="round"/>
</g>
</svg>
